<svg width="60" height="60" viewBox="0 0 60 60" fill="none" xmlns="http://www.w3.org/2000/svg">
<circle cx="30" cy="30" r="29.5" fill="white" stroke="#E9E9E9"/>
<path d="M30.0001 22.511C30.5611 22.511 31.1191 22.865 31.5441 23.573L37.4561 33.427C38.3071 34.842 37.6501 36 36.0001 36H24.0001C22.3501 36 21.6931 34.841 22.5441 33.427L28.4561 23.573C28.8811 22.865 29.4391 22.511 30.0001 22.511ZM30.0001 20.511C28.7041 20.511 27.5181 21.251 26.7411 22.542L20.8291 32.398C20.0431 33.707 19.9571 35.103 20.5941 36.228C21.2311 37.353 22.4731 38 24.0001 38H36.0001C37.5271 38 38.7701 37.354 39.4061 36.229C40.0421 35.104 39.9571 33.708 39.1711 32.399L33.2591 22.545C32.4821 21.251 31.2961 20.511 30.0001 20.511Z" fill="#090740"/>
<path d="M30 34.3C30.7179 34.3 31.3 33.718 31.3 33C31.3 32.282 30.7179 31.7 30 31.7C29.282 31.7 28.7 32.282 28.7 33C28.7 33.718 29.282 34.3 30 34.3Z" fill="#090740"/>
<path d="M31.5 27C31.5 26.17 30.829 25.5 30 25.5C29.7545 25.5003 29.5129 25.5608 29.2963 25.6762C29.0797 25.7916 28.8948 25.9584 28.7576 26.162C28.6205 26.3655 28.5354 26.5996 28.5099 26.8437C28.4843 27.0878 28.519 27.3344 28.611 27.562C29.165 28.938 30 31 30 31L31.391 27.562C31.459 27.389 31.5 27.199 31.5 27Z" fill="#090740"/>
</svg>
