<svg width="60" height="60" viewBox="0 0 60 60" fill="none" xmlns="http://www.w3.org/2000/svg">
<circle cx="30" cy="30" r="29.5" fill="white" stroke="#E9E9E9"/>
<path d="M28.825 40C28.375 40 27.9876 39.85 27.663 39.55C27.3383 39.25 27.1423 38.8833 27.075 38.45L26.85 36.8C26.6333 36.7167 26.4293 36.6167 26.238 36.5C26.0466 36.3833 25.859 36.2583 25.675 36.125L24.125 36.775C23.7083 36.9583 23.2916 36.975 22.875 36.825C22.4583 36.675 22.1333 36.4083 21.9 36.025L20.725 33.975C20.4916 33.5917 20.425 33.1833 20.525 32.75C20.625 32.3167 20.85 31.9583 21.2 31.675L22.525 30.675C22.5083 30.5583 22.5 30.4457 22.5 30.337V29.662C22.5 29.554 22.5083 29.4417 22.525 29.325L21.2 28.325C20.85 28.0417 20.625 27.6833 20.525 27.25C20.425 26.8167 20.4916 26.4083 20.725 26.025L21.9 23.975C22.1333 23.5917 22.4583 23.325 22.875 23.175C23.2916 23.025 23.7083 23.0417 24.125 23.225L25.675 23.875C25.8583 23.7417 26.05 23.6167 26.25 23.5C26.45 23.3833 26.65 23.2833 26.85 23.2L27.075 21.55C27.1416 21.1167 27.3376 20.75 27.663 20.45C27.9883 20.15 28.3756 20 28.825 20H31.175C31.625 20 32.0126 20.15 32.338 20.45C32.6633 20.75 32.859 21.1167 32.925 21.55L33.15 23.2C33.3666 23.2833 33.571 23.3833 33.763 23.5C33.955 23.6167 34.1423 23.7417 34.325 23.875L35.875 23.225C36.2916 23.0417 36.7083 23.025 37.125 23.175C37.5416 23.325 37.8666 23.5917 38.1 23.975L39.275 26.025C39.5083 26.4083 39.575 26.8167 39.475 27.25C39.375 27.6833 39.15 28.0417 38.8 28.325L37.475 29.325C37.4916 29.4417 37.5 29.5543 37.5 29.663V30.337C37.5 30.4457 37.4833 30.5583 37.45 30.675L38.775 31.675C39.125 31.9583 39.35 32.3167 39.45 32.75C39.55 33.1833 39.4833 33.5917 39.25 33.975L38.05 36.025C37.8166 36.4083 37.4916 36.675 37.075 36.825C36.6583 36.975 36.2416 36.9583 35.825 36.775L34.325 36.125C34.1416 36.2583 33.95 36.3833 33.75 36.5C33.55 36.6167 33.35 36.7167 33.15 36.8L32.925 38.45C32.8583 38.8833 32.6626 39.25 32.338 39.55C32.0133 39.85 31.6256 40 31.175 40H28.825ZM29 38H30.975L31.325 35.35C31.8416 35.2167 32.321 35.021 32.763 34.763C33.205 34.505 33.609 34.1923 33.975 33.825L36.45 34.85L37.425 33.15L35.275 31.525C35.3583 31.2917 35.4166 31.046 35.45 30.788C35.4833 30.53 35.5 30.2673 35.5 30C35.5 29.7327 35.4833 29.4703 35.45 29.213C35.4166 28.9557 35.3583 28.7097 35.275 28.475L37.425 26.85L36.45 25.15L33.975 26.2C33.6083 25.8167 33.2043 25.496 32.763 25.238C32.3216 24.98 31.8423 24.784 31.325 24.65L31 22H29.025L28.675 24.65C28.1583 24.7833 27.6793 24.9793 27.238 25.238C26.7966 25.4967 26.3923 25.809 26.025 26.175L23.55 25.15L22.575 26.85L24.725 28.45C24.6416 28.7 24.5833 28.95 24.55 29.2C24.5166 29.45 24.5 29.7167 24.5 30C24.5 30.2667 24.5166 30.525 24.55 30.775C24.5833 31.025 24.6416 31.275 24.725 31.525L22.575 33.15L23.55 34.85L26.025 33.8C26.3916 34.1833 26.796 34.5043 27.238 34.763C27.68 35.0217 28.159 35.2173 28.675 35.35L29 38ZM30.05 33.5C31.0166 33.5 31.8416 33.1583 32.525 32.475C33.2083 31.7917 33.55 30.9667 33.55 30C33.55 29.0333 33.2083 28.2083 32.525 27.525C31.8416 26.8417 31.0166 26.5 30.05 26.5C29.0666 26.5 28.2376 26.8417 27.563 27.525C26.8883 28.2083 26.5506 29.0333 26.55 30C26.5493 30.9667 26.887 31.7917 27.563 32.475C28.239 33.1583 29.068 33.5 30.05 33.5Z" fill="#090740"/>
</svg>
