<svg width="28" height="28" viewBox="0 0 28 28" fill="none" xmlns="http://www.w3.org/2000/svg">
<circle cx="14" cy="14" r="13.5" stroke="#E9E9E9"/>
<g opacity="0.4">
<path d="M16.3334 9.33325C16.7798 9.33323 17.2093 9.50377 17.5341 9.81C17.8588 10.1162 18.0543 10.535 18.0805 10.9806L18.0834 11.0833V12.2499C18.5298 12.2499 18.9593 12.4204 19.2841 12.7267C19.6088 13.0329 19.8043 13.4516 19.8305 13.8973L19.8334 13.9999V16.3333C19.8334 16.7796 19.6629 17.2091 19.3567 17.5339C19.0504 17.8587 18.6317 18.0541 18.1861 18.0803L18.0834 18.0833V18.6468C18.0834 19.2418 17.4167 19.5766 16.9436 19.2493L16.8876 19.2073L15.5389 18.0833H13.4167C12.9868 18.0833 12.572 17.925 12.2512 17.6388L12.1696 17.5606L11.0834 18.3749C10.622 18.7208 9.97158 18.4187 9.92025 17.8622L9.91675 17.7916V16.9166C9.47038 16.9166 9.04086 16.7461 8.7161 16.4398C8.39133 16.1336 8.19585 15.7149 8.16966 15.2693L8.16675 15.1666V11.0833C8.16672 10.6369 8.33727 10.2074 8.6435 9.8826C8.94972 9.55783 9.36848 9.36236 9.81408 9.33617L9.91675 9.33325H16.3334ZM18.0834 13.4166H13.4167C13.262 13.4166 13.1137 13.478 13.0043 13.5874C12.8949 13.6968 12.8334 13.8452 12.8334 13.9999V16.3333C12.8334 16.488 12.8949 16.6363 13.0043 16.7457C13.1137 16.8551 13.262 16.9166 13.4167 16.9166H15.5389C15.8118 16.9167 16.076 17.0125 16.2856 17.1873L16.9202 17.7158C16.9392 17.4977 17.0392 17.2946 17.2006 17.1467C17.3619 16.9987 17.5728 16.9166 17.7917 16.9166H18.0834C18.2381 16.9166 18.3865 16.8551 18.4959 16.7457C18.6053 16.6363 18.6667 16.488 18.6667 16.3333V13.9999C18.6667 13.8452 18.6053 13.6968 18.4959 13.5874C18.3865 13.478 18.2381 13.4166 18.0834 13.4166ZM16.3334 10.4999H9.91675C9.76204 10.4999 9.61367 10.5614 9.50427 10.6708C9.39487 10.7802 9.33341 10.9285 9.33341 11.0833V15.1666C9.33341 15.3213 9.39487 15.4697 9.50427 15.5791C9.61367 15.6885 9.76204 15.7499 9.91675 15.7499H10.2084C10.4405 15.7499 10.663 15.8421 10.8271 16.0062C10.9912 16.1703 11.0834 16.3929 11.0834 16.6249V16.9166L11.6726 16.475C11.6687 16.4278 11.6668 16.3806 11.6667 16.3333V13.9999C11.6667 13.5358 11.8511 13.0907 12.1793 12.7625C12.5075 12.4343 12.9526 12.2499 13.4167 12.2499H16.9167V11.0833C16.9167 10.9285 16.8553 10.7802 16.7459 10.6708C16.6365 10.5614 16.4881 10.4999 16.3334 10.4999Z" fill="#090740"/>
</g>
</svg>
