<svg width="36" height="36" viewBox="0 0 36 36" fill="none" xmlns="http://www.w3.org/2000/svg">
<circle cx="18" cy="18" r="17.5" stroke="#E9E9E9"/>
<g opacity="0.4">
<path d="M14.6666 24C14.3 24 13.9862 23.8696 13.7253 23.6087C13.4644 23.3478 13.3337 23.0338 13.3333 22.6667V14H12.6666V12.6667H16V12H20V12.6667H23.3333V14H22.6666V22.6667C22.6666 23.0333 22.5362 23.3473 22.2753 23.6087C22.0144 23.87 21.7004 24.0004 21.3333 24H14.6666ZM21.3333 14H14.6666V22.6667H21.3333V14ZM16 21.3333H17.3333V15.3333H16V21.3333ZM18.6666 21.3333H20V15.3333H18.6666V21.3333Z" fill="black"/>
</g>
</svg>
