<svg width="36" height="36" viewBox="0 0 36 36" fill="none" xmlns="http://www.w3.org/2000/svg">
<circle cx="18" cy="18" r="17.5" stroke="#E9E9E9"/>
<g opacity="0.4">
<path d="M18 13.674C18.374 13.674 18.746 13.91 19.0293 14.382L22.9707 20.9513C23.538 21.8946 23.1 22.6666 22 22.6666H14C12.9 22.6666 12.462 21.894 13.0293 20.9513L16.9707 14.382C17.254 13.91 17.626 13.674 18 13.674ZM18 12.3406C17.136 12.3406 16.3453 12.834 15.8273 13.6946L11.886 20.2653C11.362 21.138 11.3047 22.0686 11.7293 22.8186C12.154 23.5686 12.982 24 14 24H22C23.018 24 23.8467 23.5693 24.2707 22.8193C24.6947 22.0693 24.638 21.1386 24.114 20.266L20.1727 13.6966C19.6547 12.834 18.864 12.3406 18 12.3406Z" fill="#090740"/>
<path d="M18 21.5333C18.4786 21.5333 18.8666 21.1453 18.8666 20.6667C18.8666 20.188 18.4786 19.8 18 19.8C17.5213 19.8 17.1333 20.188 17.1333 20.6667C17.1333 21.1453 17.5213 21.5333 18 21.5333Z" fill="#090740"/>
<path d="M18.9999 16.6667C18.9999 16.1134 18.5526 15.6667 17.9999 15.6667C17.8363 15.6669 17.6752 15.7072 17.5308 15.7842C17.3864 15.8611 17.2631 15.9723 17.1717 16.108C17.0803 16.2437 17.0236 16.3998 17.0065 16.5625C16.9895 16.7252 17.0126 16.8897 17.0739 17.0414C17.4433 17.9587 17.9999 19.3334 17.9999 19.3334L18.9273 17.0414C18.9726 16.926 18.9999 16.7994 18.9999 16.6667Z" fill="#090740"/>
</g>
</svg>
