<svg width="36" height="36" viewBox="0 0 36 36" fill="none" xmlns="http://www.w3.org/2000/svg">
<circle cx="18" cy="18" r="17.5" stroke="#E9E9E9"/>
<g opacity="0.4">
<path d="M21 20.72C20.4933 20.72 20.04 20.92 19.6933 21.2333L14.94 18.4666C14.9733 18.3133 15 18.16 15 18C15 17.84 14.9733 17.6866 14.94 17.5333L19.64 14.7933C20 15.1266 20.4733 15.3333 21 15.3333C22.1067 15.3333 23 14.44 23 13.3333C23 12.2266 22.1067 11.3333 21 11.3333C19.8933 11.3333 19 12.2266 19 13.3333C19 13.4933 19.0267 13.6466 19.06 13.8L14.36 16.54C14 16.2066 13.5267 16 13 16C11.8933 16 11 16.8933 11 18C11 19.1066 11.8933 20 13 20C13.5267 20 14 19.7933 14.36 19.46L19.1067 22.2333C19.0733 22.3733 19.0533 22.52 19.0533 22.6666C19.0533 23.74 19.9267 24.6133 21 24.6133C22.0733 24.6133 22.9467 23.74 22.9467 22.6666C22.9467 21.5933 22.0733 20.72 21 20.72ZM21 12.6666C21.3667 12.6666 21.6667 12.9666 21.6667 13.3333C21.6667 13.7 21.3667 14 21 14C20.6333 14 20.3333 13.7 20.3333 13.3333C20.3333 12.9666 20.6333 12.6666 21 12.6666ZM13 18.6666C12.6333 18.6666 12.3333 18.3666 12.3333 18C12.3333 17.6333 12.6333 17.3333 13 17.3333C13.3667 17.3333 13.6667 17.6333 13.6667 18C13.6667 18.3666 13.3667 18.6666 13 18.6666ZM21 23.3466C20.6333 23.3466 20.3333 23.0466 20.3333 22.68C20.3333 22.3133 20.6333 22.0133 21 22.0133C21.3667 22.0133 21.6667 22.3133 21.6667 22.68C21.6667 23.0466 21.3667 23.3466 21 23.3466Z" fill="#090740"/>
</g>
</svg>
