<svg width="60" height="60" viewBox="0 0 60 60" fill="none" xmlns="http://www.w3.org/2000/svg">
<rect x="0.5" y="0.5" width="59" height="59" rx="29.5" stroke="#E9E9E9"/>
<g clip-path="url(#clip0_152_2)">
<path fill-rule="evenodd" clip-rule="evenodd" d="M21.076 23.617C21.1517 23.4343 21.28 23.2782 21.4444 23.1684C21.6089 23.0585 21.8022 23 22 23H32C32.9192 23 33.8295 23.1811 34.6788 23.5328C35.5281 23.8846 36.2997 24.4002 36.9497 25.0503C37.5998 25.7003 38.1154 26.4719 38.4672 27.3212C38.8189 28.1705 39 29.0807 39 30C39 30.9193 38.8189 31.8295 38.4672 32.6788C38.1154 33.5281 37.5998 34.2997 36.9497 34.9497C36.2997 35.5998 35.5281 36.1154 34.6788 36.4672C33.8295 36.8189 32.9192 37 32 37H23C22.7348 37 22.4804 36.8946 22.2929 36.7071C22.1054 36.5196 22 36.2652 22 36C22 35.7348 22.1054 35.4804 22.2929 35.2929C22.4804 35.1054 22.7348 35 23 35H32C33.3261 35 34.5978 34.4732 35.5355 33.5355C36.4732 32.5979 37 31.3261 37 30C37 28.6739 36.4732 27.4021 35.5355 26.4645C34.5978 25.5268 33.3261 25 32 25H24.414L26.207 26.793C26.3892 26.9816 26.4899 27.2342 26.4877 27.4964C26.4854 27.7586 26.3802 28.0094 26.1948 28.1948C26.0094 28.3802 25.7586 28.4854 25.4964 28.4877C25.2342 28.49 24.9816 28.3892 24.793 28.207L21.293 24.707C21.1531 24.5672 21.0578 24.3889 21.0191 24.1949C20.9805 24.0009 21.0003 23.7998 21.076 23.617Z" fill="#090740"/>
</g>
<defs>
<clipPath id="clip0_152_2">
<rect width="24" height="24" fill="white" transform="translate(18 18)"/>
</clipPath>
</defs>
</svg>
