<svg width="60" height="60" viewBox="0 0 60 60" fill="none" xmlns="http://www.w3.org/2000/svg">
<rect x="0.5" y="0.5" width="59" height="59" rx="29.5" stroke="#E9E9E9"/>
<path d="M30 22.429C30.6545 22.429 31.3055 22.842 31.8014 23.668L38.6987 35.1644C39.6915 36.8152 38.925 38.1662 37 38.1662H23C21.075 38.1662 20.3085 36.814 21.3014 35.1644L28.1987 23.668C28.6945 22.842 29.3455 22.429 30 22.429ZM30 20.0957C28.488 20.0957 27.1044 20.959 26.1979 22.4652L19.3005 33.9639C18.3835 35.491 18.2832 37.1197 19.0264 38.4322C19.7695 39.7447 21.2185 40.4995 23 40.4995H37C38.7815 40.4995 40.2317 39.7459 40.9737 38.4334C41.7157 37.1209 41.6165 35.4922 40.6995 33.965L33.8022 22.4687C32.8957 20.959 31.512 20.0957 30 20.0957Z" fill="#090740"/>
<path d="M30 36.1837C30.8376 36.1837 31.5167 35.5047 31.5167 34.6671C31.5167 33.8294 30.8376 33.1504 30 33.1504C29.1624 33.1504 28.4833 33.8294 28.4833 34.6671C28.4833 35.5047 29.1624 36.1837 30 36.1837Z" fill="#090740"/>
<path d="M31.75 27.667C31.75 26.6987 30.9672 25.917 30 25.917C29.7137 25.9173 29.4318 25.9879 29.1791 26.1226C28.9264 26.2572 28.7106 26.4518 28.5506 26.6893C28.3906 26.9268 28.2914 27.1999 28.2615 27.4847C28.2317 27.7694 28.2722 28.0572 28.3795 28.3227C29.0258 29.928 30 32.3337 30 32.3337L31.6228 28.3227C31.7022 28.1208 31.75 27.8992 31.75 27.667Z" fill="#090740"/>
</svg>
