<svg width="60" height="60" viewBox="0 0 60 60" fill="none" xmlns="http://www.w3.org/2000/svg">
<rect width="60" height="60" rx="30" fill="#0077FF"/>
<path d="M30 22.429C30.6545 22.429 31.3055 22.842 31.8014 23.668L38.6987 35.1644C39.6915 36.8152 38.925 38.1662 37 38.1662H23C21.075 38.1662 20.3085 36.814 21.3014 35.1644L28.1987 23.668C28.6945 22.842 29.3455 22.429 30 22.429ZM30 20.0957C28.488 20.0957 27.1044 20.959 26.1979 22.4652L19.3005 33.9639C18.3835 35.491 18.2832 37.1197 19.0264 38.4322C19.7695 39.7447 21.2185 40.4995 23 40.4995H37C38.7815 40.4995 40.2317 39.7459 40.9737 38.4334C41.7157 37.1209 41.6165 35.4922 40.6995 33.965L33.8022 22.4687C32.8957 20.959 31.512 20.0957 30 20.0957Z" fill="white"/>
<path d="M30.0001 36.1837C30.8377 36.1837 31.5167 35.5047 31.5167 34.6671C31.5167 33.8294 30.8377 33.1504 30.0001 33.1504C29.1624 33.1504 28.4834 33.8294 28.4834 34.6671C28.4834 35.5047 29.1624 36.1837 30.0001 36.1837Z" fill="white"/>
<path d="M31.7499 27.667C31.7499 26.6987 30.9671 25.917 29.9999 25.917C29.7136 25.9173 29.4317 25.9879 29.179 26.1226C28.9263 26.2572 28.7105 26.4518 28.5505 26.6893C28.3906 26.9268 28.2913 27.1999 28.2615 27.4847C28.2316 27.7694 28.2721 28.0572 28.3794 28.3227C29.0258 29.928 29.9999 32.3337 29.9999 32.3337L31.6228 28.3227C31.7021 28.1208 31.7499 27.8992 31.7499 27.667Z" fill="white"/>
</svg>
