<svg width="28" height="28" viewBox="0 0 28 28" fill="none" xmlns="http://www.w3.org/2000/svg">
<path d="M14 6.42904C14.6545 6.42904 15.3055 6.84204 15.8014 7.66804L22.6987 19.1644C23.6915 20.8152 22.925 22.1662 21 22.1662H7.00002C5.07502 22.1662 4.30852 20.814 5.30135 19.1644L12.1987 7.66804C12.6945 6.84204 13.3455 6.42904 14 6.42904ZM14 4.0957C12.488 4.0957 11.1044 4.95904 10.1979 6.4652L3.30052 17.9639C2.38352 19.491 2.28319 21.1197 3.02635 22.4322C3.76952 23.7447 5.21852 24.4995 7.00002 24.4995H21C22.7815 24.4995 24.2317 23.7459 24.9737 22.4334C25.7157 21.1209 25.6165 19.4922 24.6995 17.965L17.8022 6.4687C16.8957 4.95904 15.512 4.0957 14 4.0957Z" fill="#090740"/>
<path d="M14 20.1837C14.8376 20.1837 15.5167 19.5047 15.5167 18.6671C15.5167 17.8294 14.8376 17.1504 14 17.1504C13.1624 17.1504 12.4833 17.8294 12.4833 18.6671C12.4833 19.5047 13.1624 20.1837 14 20.1837Z" fill="#090740"/>
<path d="M15.75 11.667C15.75 10.6987 14.9672 9.91699 14 9.91699C13.7137 9.91732 13.4318 9.98791 13.1791 10.1226C12.9264 10.2572 12.7106 10.4518 12.5506 10.6893C12.3906 10.9268 12.2914 11.1999 12.2615 11.4847C12.2317 11.7694 12.2722 12.0572 12.3795 12.3227C13.0258 13.928 14 16.3337 14 16.3337L15.6228 12.3227C15.7022 12.1208 15.75 11.8992 15.75 11.667Z" fill="#090740"/>
</svg>
