<svg width="24" height="24" viewBox="0 0 24 24" fill="none" xmlns="http://www.w3.org/2000/svg">
<path fill-rule="evenodd" clip-rule="evenodd" d="M12 20.9998V14.9998H13.5V20.9998H21V7.49981H22.5V20.9998C22.5 21.3976 22.342 21.7792 22.0607 22.0605C21.7794 22.3418 21.3978 22.4998 21 22.4998H3C2.60218 22.4998 2.22064 22.3418 1.93934 22.0605C1.65804 21.7792 1.5 21.3976 1.5 20.9998V17.9998H3V20.9998H12ZM19.2795 5.78081L14.781 10.2808C15.0216 10.7817 15.0684 11.3539 14.9123 11.8872C14.7562 12.4205 14.4082 12.8772 13.9355 13.1693C13.4627 13.4613 12.8986 13.5681 12.3518 13.4691C11.805 13.37 11.3143 13.0721 10.974 12.6328L6.903 13.9888L6 14.2903C5.99054 14.821 5.79374 15.3313 5.44439 15.731C5.09504 16.1306 4.61565 16.3939 4.09095 16.4743C3.56625 16.5546 3.03004 16.4469 2.57711 16.1701C2.12417 15.8933 1.78368 15.4653 1.61582 14.9617C1.44796 14.4581 1.46355 13.9114 1.65982 13.4182C1.8561 12.925 2.22042 12.5171 2.68839 12.2666C3.15636 12.016 3.69784 11.939 4.21711 12.0491C4.73637 12.1592 5.19999 12.4494 5.526 12.8683L10.5 11.2093C10.5067 10.8327 10.6078 10.4638 10.7941 10.1364C10.9804 9.80906 11.2459 9.5337 11.5663 9.3356C11.8867 9.1375 12.2516 9.023 12.6278 9.00259C13.0039 8.98218 13.3791 9.05653 13.719 9.21881L18.219 4.71881C17.9902 4.23986 17.9381 3.69546 18.0719 3.18183C18.2057 2.66819 18.5168 2.2184 18.9502 1.91194C19.3836 1.60549 19.9113 1.46211 20.4402 1.50714C20.969 1.55217 21.465 1.78272 21.8403 2.15804C22.2156 2.53335 22.4461 3.02927 22.4912 3.55813C22.5362 4.08699 22.3928 4.61475 22.0864 5.04811C21.7799 5.48148 21.3301 5.79256 20.8165 5.92636C20.3028 6.06016 19.7584 6.00808 19.2795 5.77931" fill="#090740"/>
</svg>
