<svg width="60" height="60" viewBox="0 0 60 60" fill="none" xmlns="http://www.w3.org/2000/svg">
<rect width="60" height="60" rx="30" fill="#0077FF"/>
<path fill-rule="evenodd" clip-rule="evenodd" d="M30 38.9998V32.9998H31.5V38.9998H39V25.4998H40.5V38.9998C40.5 39.3976 40.342 39.7792 40.0607 40.0605C39.7794 40.3418 39.3978 40.4998 39 40.4998H21C20.6022 40.4998 20.2206 40.3418 19.9393 40.0605C19.658 39.7792 19.5 39.3976 19.5 38.9998V35.9998H21V38.9998H30ZM37.2795 23.7808L32.781 28.2808C33.0216 28.7817 33.0684 29.3539 32.9123 29.8872C32.7562 30.4205 32.4082 30.8772 31.9355 31.1693C31.4627 31.4613 30.8986 31.5681 30.3518 31.4691C29.805 31.37 29.3143 31.0721 28.974 30.6328L24.903 31.9888L24 32.2903C23.9905 32.821 23.7937 33.3313 23.4444 33.731C23.095 34.1306 22.6156 34.3939 22.091 34.4743C21.5663 34.5546 21.03 34.4469 20.5771 34.1701C20.1242 33.8933 19.7837 33.4653 19.6158 32.9617C19.448 32.4581 19.4635 31.9114 19.6598 31.4182C19.8561 30.925 20.2204 30.5171 20.6884 30.2666C21.1564 30.016 21.6978 29.939 22.2171 30.0491C22.7364 30.1592 23.2 30.4494 23.526 30.8683L28.5 29.2093C28.5067 28.8327 28.6078 28.4638 28.7941 28.1364C28.9804 27.8091 29.2459 27.5337 29.5663 27.3356C29.8867 27.1375 30.2516 27.023 30.6278 27.0026C31.0039 26.9822 31.3791 27.0565 31.719 27.2188L36.219 22.7188C35.9902 22.2399 35.9381 21.6955 36.0719 21.1818C36.2057 20.6682 36.5168 20.2184 36.9502 19.9119C37.3836 19.6055 37.9113 19.4621 38.4402 19.5071C38.969 19.5522 39.465 19.7827 39.8403 20.158C40.2156 20.5334 40.4461 21.0293 40.4912 21.5581C40.5362 22.087 40.3928 22.6147 40.0864 23.0481C39.7799 23.4815 39.3301 23.7926 38.8165 23.9264C38.3028 24.0602 37.7584 24.0081 37.2795 23.7793" fill="white"/>
</svg>
