<svg width="40" height="40" viewBox="0 0 40 40" fill="none" xmlns="http://www.w3.org/2000/svg">
<circle cx="20" cy="20" r="19.5" fill="white" stroke="#E9E9E9"/>
<path d="M13.6 26C13.16 26 12.7835 25.841 12.4704 25.5231C12.1573 25.2051 12.0005 24.8224 12 24.375V16.25C12 15.8031 12.1568 15.4207 12.4704 15.1027C12.784 14.7848 13.1605 14.6255 13.6 14.625H18.4L20 13H26.4C26.84 13 27.2168 13.1592 27.5304 13.4777C27.844 13.7962 28.0005 14.1787 28 14.625V24.375C28 24.8219 27.8435 25.2046 27.5304 25.5231C27.2173 25.8416 26.8405 26.0005 26.4 26H13.6ZM15.06 20.3125H19.2V16.1078L15.06 20.3125ZM13.6 19.5L16.8 16.25H13.6V19.5ZM13.6 21.9375V24.375H26.4V14.625H20.8V20.3125C20.8 20.7594 20.6435 21.1421 20.3304 21.4606C20.0173 21.7791 19.6405 21.938 19.2 21.9375H13.6Z" fill="#090740"/>
</svg>
