<svg width="40" height="40" viewBox="0 0 40 40" fill="none" xmlns="http://www.w3.org/2000/svg">
<circle cx="20" cy="20" r="20" fill="#0077FF"/>
<path fill-rule="evenodd" clip-rule="evenodd" d="M24.9925 15.0083L14.4991 18.8025L17.995 20.8258L21.0775 17.7425C21.2338 17.5862 21.4459 17.4985 21.6669 17.4986C21.888 17.4987 22.0999 17.5865 22.2562 17.7429C22.4125 17.8993 22.5002 18.1113 22.5001 18.3324C22.5 18.5534 22.4122 18.7654 22.2558 18.9217L19.1725 22.005L21.1975 25.5L24.9925 15.0083ZM25.2616 13.1383C26.2575 12.7775 27.2225 13.7425 26.8616 14.7383L22.46 26.9092C22.0983 27.9075 20.735 28.0292 20.2025 27.11L17.5216 22.4783L12.89 19.7975C11.9708 19.265 12.0925 17.9017 13.0908 17.54L25.2616 13.1383Z" fill="white"/>
</svg>
