<svg width="40" height="40" viewBox="0 0 40 40" fill="none" xmlns="http://www.w3.org/2000/svg">
<circle cx="20" cy="20" r="19.5" fill="white" stroke="#E9E9E9"/>
<g clip-path="url(#clip0_23_1379)">
<path d="M14.6666 22C15.7712 22 16.6666 21.1046 16.6666 20C16.6666 18.8954 15.7712 18 14.6666 18C13.5621 18 12.6666 18.8954 12.6666 20C12.6666 21.1046 13.5621 22 14.6666 22Z" fill="#090740"/>
<path d="M20 22C21.1046 22 22 21.1046 22 20C22 18.8954 21.1046 18 20 18C18.8954 18 18 18.8954 18 20C18 21.1046 18.8954 22 20 22Z" fill="#090740"/>
<path d="M25.3334 22C26.4379 22 27.3334 21.1046 27.3334 20C27.3334 18.8954 26.4379 18 25.3334 18C24.2288 18 23.3334 18.8954 23.3334 20C23.3334 21.1046 24.2288 22 25.3334 22Z" fill="#090740"/>
</g>
<defs>
<clipPath id="clip0_23_1379">
<rect width="16" height="16" fill="white" transform="translate(12 12)"/>
</clipPath>
</defs>
</svg>
