<svg width="60" height="60" viewBox="0 0 60 60" fill="none" xmlns="http://www.w3.org/2000/svg">
<circle cx="30" cy="30" r="29.5" fill="white" stroke="#E9E9E9"/>
<path fill-rule="evenodd" clip-rule="evenodd" d="M23.0001 27C23.0001 25.1435 23.7376 23.363 25.0503 22.0503C26.3631 20.7375 28.1435 20 30.0001 20C31.8566 20 33.637 20.7375 34.9498 22.0503C36.2626 23.363 37.0001 25.1435 37.0001 27V30.764L38.8221 34.408C38.9059 34.5757 38.9455 34.7621 38.9371 34.9494C38.9287 35.1368 38.8725 35.3188 38.7739 35.4783C38.6753 35.6379 38.5376 35.7695 38.3738 35.8608C38.21 35.9521 38.0256 36 37.8381 36H33.8741C33.6516 36.8582 33.1505 37.6183 32.4493 38.1609C31.7481 38.7035 30.8867 38.9979 30.0001 38.9979C29.1135 38.9979 28.252 38.7035 27.5508 38.1609C26.8496 37.6183 26.3485 36.8582 26.1261 36H22.1621C21.9745 36 21.7901 35.9521 21.6263 35.8608C21.4625 35.7695 21.3248 35.6379 21.2262 35.4783C21.1276 35.3188 21.0714 35.1368 21.063 34.9494C21.0546 34.7621 21.0942 34.5757 21.1781 34.408L23.0001 30.764V27ZM28.2681 36C28.4436 36.304 28.6961 36.5565 29.0001 36.732C29.3041 36.9075 29.649 36.9999 30.0001 36.9999C30.3511 36.9999 30.696 36.9075 31 36.732C31.304 36.5565 31.5565 36.304 31.7321 36H28.2681ZM30.0001 22C28.674 22 27.4022 22.5268 26.4645 23.4645C25.5268 24.4021 25.0001 25.6739 25.0001 27V30.764C25 31.0743 24.9278 31.3804 24.7891 31.658L23.6191 34H36.3821L35.2121 31.658C35.073 31.3805 35.0004 31.0744 35.0001 30.764V27C35.0001 25.6739 34.4733 24.4021 33.5356 23.4645C32.5979 22.5268 31.3261 22 30.0001 22Z" fill="#090740"/>
</svg>
