<svg width="24" height="24" viewBox="0 0 24 24" fill="none" xmlns="http://www.w3.org/2000/svg">
<path d="M13.584 7C13.3085 6.36847 12.9055 5.80067 12.4003 5.33222C11.8951 4.86377 11.2985 4.50477 10.648 4.27774C9.99748 4.05071 9.30707 3.96054 8.62007 4.0129C7.93307 4.06525 7.2643 4.259 6.65571 4.58198C6.04711 4.90497 5.51182 5.35022 5.08341 5.88983C4.655 6.42943 4.34271 7.05173 4.16612 7.71771C3.98954 8.38369 3.95247 9.07897 4.05725 9.75995C4.16203 10.4409 4.40638 11.0929 4.775 11.675L4 14L6.325 13.225C6.53966 13.361 6.76466 13.4807 7 13.584M15 20C13.8906 19.9998 12.8128 19.6307 11.9362 18.9508C11.0596 18.2708 10.434 17.3186 10.158 16.2441C9.88195 15.1696 9.9711 14.0338 10.4114 13.0155C10.8517 11.9972 11.6182 11.1543 12.5901 10.6195C13.5621 10.0846 14.6843 9.88818 15.7802 10.0611C16.876 10.2341 17.8832 10.7665 18.6432 11.5747C19.4032 12.3829 19.8728 13.4209 19.9781 14.5253C20.0835 15.6297 19.8185 16.7377 19.225 17.675L20 20L17.675 19.225C16.8747 19.7315 15.9471 20.0002 15 20Z" stroke="#090740" stroke-width="2" stroke-linecap="round" stroke-linejoin="round"/>
</svg>
