<svg width="24" height="24" viewBox="0 0 24 24" fill="none" xmlns="http://www.w3.org/2000/svg">
<rect width="24" height="24" fill="#0077FF"/>
<path d="M13.584 7.0001C13.3085 6.36857 12.9055 5.80077 12.4003 5.33232C11.8951 4.86387 11.2985 4.50487 10.648 4.27784C9.99748 4.05081 9.30707 3.96064 8.62007 4.01299C7.93307 4.06535 7.2643 4.2591 6.65571 4.58208C6.04711 4.90507 5.51182 5.35032 5.08341 5.88993C4.655 6.42953 4.34271 7.05183 4.16612 7.71781C3.98954 8.38379 3.95247 9.07907 4.05725 9.76005C4.16203 10.441 4.40638 11.093 4.775 11.6751L4 14.0001L6.325 13.2251C6.53966 13.3611 6.76466 13.4808 7 13.5841M15 20.0001C13.8906 19.9999 12.8128 19.6308 11.9362 18.9509C11.0596 18.2709 10.434 17.3187 10.158 16.2442C9.88195 15.1697 9.9711 14.0339 10.4114 13.0156C10.8517 11.9973 11.6182 11.1544 12.5901 10.6196C13.5621 10.0847 14.6843 9.88828 15.7802 10.0612C16.876 10.2342 17.8832 10.7666 18.6432 11.5748C19.4032 12.383 19.8728 13.421 19.9781 14.5254C20.0835 15.6298 19.8185 16.7378 19.225 17.6751L20 20.0001L17.675 19.2251C16.8747 19.7316 15.9471 20.0003 15 20.0001Z" stroke="white" stroke-width="2" stroke-linecap="round" stroke-linejoin="round"/>
</svg>
