<svg width="44" height="44" viewBox="0 0 44 44" fill="none" xmlns="http://www.w3.org/2000/svg">
<circle cx="22" cy="22" r="21.5" fill="white" stroke="#E9E9E9"/>
<path d="M22 23.6666V25.3333C20.674 25.3333 19.4022 25.8601 18.4645 26.7978C17.5268 27.7355 17 29.0072 17 30.3333H15.3334C15.3334 28.5652 16.0358 26.8695 17.286 25.6193C18.5362 24.369 20.2319 23.6666 22 23.6666ZM22 22.8333C19.2375 22.8333 17 20.5958 17 17.8333C17 15.0708 19.2375 12.8333 22 12.8333C24.7625 12.8333 27 15.0708 27 17.8333C27 20.5958 24.7625 22.8333 22 22.8333ZM22 21.1666C23.8417 21.1666 25.3334 19.675 25.3334 17.8333C25.3334 15.9916 23.8417 14.5 22 14.5C20.1584 14.5 18.6667 15.9916 18.6667 17.8333C18.6667 19.675 20.1584 21.1666 22 21.1666ZM29.5 26.1666H30.3334V30.3333H23.6667V26.1666H24.5V25.3333C24.5 24.6703 24.7634 24.0344 25.2323 23.5655C25.7011 23.0967 26.337 22.8333 27 22.8333C27.6631 22.8333 28.299 23.0967 28.7678 23.5655C29.2366 24.0344 29.5 24.6703 29.5 25.3333V26.1666ZM27.8334 26.1666V25.3333C27.8334 25.1123 27.7456 24.9003 27.5893 24.7441C27.433 24.5878 27.2211 24.5 27 24.5C26.779 24.5 26.5671 24.5878 26.4108 24.7441C26.2545 24.9003 26.1667 25.1123 26.1667 25.3333V26.1666H27.8334Z" fill="#090740"/>
</svg>
