<svg width="44" height="44" viewBox="0 0 44 44" fill="none" xmlns="http://www.w3.org/2000/svg">
<circle cx="22" cy="22" r="21.5" fill="white" stroke="#E9E9E9"/>
<path d="M22 15.5C23.7239 15.5 25.3772 16.1848 26.5962 17.4038C27.8152 18.6228 28.5 20.2761 28.5 22C28.5 23.7239 27.8152 25.3772 26.5962 26.5962C25.3772 27.8152 23.7239 28.5 22 28.5V15.5ZM22 14C19.8783 14 17.8434 14.8429 16.3431 16.3431C14.8429 17.8434 14 19.8783 14 22C14 24.1217 14.8429 26.1566 16.3431 27.6569C17.8434 29.1571 19.8783 30 22 30C24.1217 30 26.1566 29.1571 27.6569 27.6569C29.1571 26.1566 30 24.1217 30 22C30 19.8783 29.1571 17.8434 27.6569 16.3431C26.1566 14.8429 24.1217 14 22 14Z" fill="#090740"/>
</svg>
