<svg width="44" height="44" viewBox="0 0 44 44" fill="none" xmlns="http://www.w3.org/2000/svg">
<circle cx="22" cy="22" r="21.5" fill="white" stroke="#FF0048"/>
<path d="M17.8333 29.5C17.3749 29.5 16.9827 29.3369 16.6566 29.0108C16.3305 28.6847 16.1671 28.2922 16.1666 27.8333V17H15.3333V15.3333H19.4999V14.5H24.4999V15.3333H28.6666V17H27.8333V27.8333C27.8333 28.2917 27.6702 28.6842 27.3441 29.0108C27.018 29.3375 26.6255 29.5006 26.1666 29.5H17.8333ZM26.1666 17H17.8333V27.8333H26.1666V17ZM19.4999 26.1667H21.1666V18.6667H19.4999V26.1667ZM22.8333 26.1667H24.4999V18.6667H22.8333V26.1667Z" fill="#FF0048"/>
</svg>
