<svg width="44" height="44" viewBox="0 0 44 44" fill="none" xmlns="http://www.w3.org/2000/svg">
<circle cx="22" cy="22" r="21.5" fill="white" stroke="#E9E9E9"/>
<path d="M15.3333 27C15.3333 26.1159 15.6844 25.2681 16.3096 24.6429C16.9347 24.0178 17.7825 23.6666 18.6666 23.6666H25.3333C26.2173 23.6666 27.0652 24.0178 27.6903 24.6429C28.3154 25.2681 28.6666 26.1159 28.6666 27C28.6666 27.442 28.491 27.8659 28.1784 28.1785C27.8659 28.491 27.4419 28.6666 26.9999 28.6666H16.9999C16.5579 28.6666 16.134 28.491 15.8214 28.1785C15.5088 27.8659 15.3333 27.442 15.3333 27Z" stroke="#090740" stroke-width="2" stroke-linejoin="round"/>
<path d="M22 20.3333C23.3807 20.3333 24.5 19.214 24.5 17.8333C24.5 16.4526 23.3807 15.3333 22 15.3333C20.6193 15.3333 19.5 16.4526 19.5 17.8333C19.5 19.214 20.6193 20.3333 22 20.3333Z" stroke="#090740" stroke-width="2"/>
</svg>
