<svg width="90" height="90" viewBox="0 0 90 90" fill="none" xmlns="http://www.w3.org/2000/svg">
<circle cx="45" cy="45" r="45" fill="#0077FF"/>
<path d="M51 58.5004V55.5004C51 53.9091 50.3679 52.383 49.2426 51.2577C48.1174 50.1325 46.5913 49.5004 45 49.5004H36C34.4087 49.5004 32.8826 50.1325 31.7574 51.2577C30.6321 52.383 30 53.9091 30 55.5004V58.5004M51 31.6924C52.2866 32.0259 53.4261 32.7773 54.2395 33.8285C55.0529 34.8797 55.4943 36.1712 55.4943 37.5004C55.4943 38.8295 55.0529 40.1211 54.2395 41.1723C53.4261 42.2235 52.2866 42.9748 51 43.3084M60 58.5004V55.5004C59.999 54.171 59.5565 52.8795 58.742 51.8289C57.9276 50.7782 56.7872 50.0277 55.5 49.6954" stroke="white" stroke-width="2" stroke-linecap="round" stroke-linejoin="round"/>
<path d="M40.5 43.5C43.8137 43.5 46.5 40.8137 46.5 37.5C46.5 34.1863 43.8137 31.5 40.5 31.5C37.1863 31.5 34.5 34.1863 34.5 37.5C34.5 40.8137 37.1863 43.5 40.5 43.5Z" stroke="white" stroke-width="2" stroke-linecap="round" stroke-linejoin="round"/>
</svg>
