<svg width="24" height="24" viewBox="0 0 24 24" fill="none" xmlns="http://www.w3.org/2000/svg">
<path d="M5.6 18C5.16 18 4.78347 17.841 4.4704 17.5231C4.15733 17.2051 4.00053 16.8224 4 16.375V8.25C4 7.80312 4.1568 7.42071 4.4704 7.10275C4.784 6.78479 5.16053 6.62554 5.6 6.625H10.4L12 5H18.4C18.84 5 19.2168 5.15925 19.5304 5.47775C19.844 5.79625 20.0005 6.17867 20 6.625V16.375C20 16.8219 19.8435 17.2046 19.5304 17.5231C19.2173 17.8416 18.8405 18.0005 18.4 18H5.6ZM7.06 12.3125H11.2V8.10781L7.06 12.3125ZM5.6 11.5L8.8 8.25H5.6V11.5ZM5.6 13.9375V16.375H18.4V6.625H12.8V12.3125C12.8 12.7594 12.6435 13.1421 12.3304 13.4606C12.0173 13.7791 11.6405 13.938 11.2 13.9375H5.6Z" fill="#090740"/>
</svg>
