<svg width="20" height="20" viewBox="0 0 20 20" fill="none" xmlns="http://www.w3.org/2000/svg">
<path fill-rule="evenodd" clip-rule="evenodd" d="M14.9925 5.00833L4.49912 8.80249L7.99495 10.8258L11.0775 7.74249C11.2338 7.58624 11.4459 7.4985 11.6669 7.49858C11.888 7.49865 12.0999 7.58654 12.2562 7.74291C12.4125 7.89928 12.5002 8.11131 12.5001 8.33237C12.5 8.55343 12.4122 8.7654 12.2558 8.92166L9.17245 12.005L11.1975 15.5L14.9925 5.00833ZM15.2616 3.13833C16.2575 2.77749 17.2225 3.74249 16.8616 4.73833L12.46 16.9092C12.0983 17.9075 10.735 18.0292 10.2025 17.11L7.52162 12.4783L2.88995 9.79749C1.97079 9.26499 2.09245 7.90166 3.09079 7.53999L15.2616 3.13833Z" fill="white"/>
</svg>
