<svg width="20" height="20" viewBox="0 0 20 20" fill="none" xmlns="http://www.w3.org/2000/svg">
<path fill-rule="evenodd" clip-rule="evenodd" d="M14.9926 5.00833L4.49924 8.80249L7.99508 10.8258L11.0776 7.74249C11.2339 7.58624 11.446 7.4985 11.667 7.49858C11.8881 7.49865 12.1001 7.58654 12.2563 7.74291C12.4126 7.89928 12.5003 8.11131 12.5002 8.33237C12.5002 8.55343 12.4123 8.7654 12.2559 8.92166L9.17258 12.005L11.1976 15.5L14.9926 5.00833ZM15.2617 3.13833C16.2576 2.77749 17.2226 3.74249 16.8617 4.73833L12.4601 16.9092C12.0984 17.9075 10.7351 18.0292 10.2026 17.11L7.52174 12.4783L2.89008 9.79749C1.97091 9.26499 2.09258 7.90166 3.09091 7.53999L15.2617 3.13833Z" fill="white"/>
</svg>
