<svg width="28" height="28" viewBox="0 0 28 28" fill="none" xmlns="http://www.w3.org/2000/svg">
<circle cx="14" cy="14" r="14" fill="#0077FF"/>
<path fill-rule="evenodd" clip-rule="evenodd" d="M9.91673 12.2498C9.91673 11.1669 10.3469 10.1283 11.1127 9.36248C11.8785 8.59671 12.9171 8.1665 14.0001 8.1665C15.083 8.1665 16.1216 8.59671 16.8874 9.36248C17.6532 10.1283 18.0834 11.1669 18.0834 12.2498V14.4455L19.1462 16.5712C19.1952 16.669 19.2183 16.7777 19.2133 16.887C19.2084 16.9963 19.1757 17.1025 19.1181 17.1955C19.0606 17.2886 18.9803 17.3654 18.8847 17.4186C18.7892 17.4719 18.6816 17.4999 18.5722 17.4998H16.2599C16.1301 18.0005 15.8378 18.4439 15.4288 18.7604C15.0198 19.0769 14.5172 19.2486 14.0001 19.2486C13.4829 19.2486 12.9803 19.0769 12.5713 18.7604C12.1623 18.4439 11.87 18.0005 11.7402 17.4998H9.42789C9.31851 17.4999 9.21093 17.4719 9.11538 17.4186C9.01984 17.3654 8.93949 17.2886 8.88198 17.1955C8.82447 17.1025 8.7917 16.9963 8.78678 16.887C8.78187 16.7777 8.80497 16.669 8.85389 16.5712L9.91673 14.4455V12.2498ZM12.9897 17.4998C13.0921 17.6772 13.2394 17.8244 13.4168 17.9268C13.5941 18.0292 13.7953 18.0831 14.0001 18.0831C14.2048 18.0831 14.406 18.0292 14.5834 17.9268C14.7607 17.8244 14.908 17.6772 15.0104 17.4998H12.9897ZM14.0001 9.33317C13.2265 9.33317 12.4846 9.64046 11.9377 10.1874C11.3907 10.7344 11.0834 11.4763 11.0834 12.2498V14.4455C11.0834 14.6265 11.0412 14.8051 10.9603 14.967L10.2778 16.3332H17.7229L17.0404 14.967C16.9593 14.8051 16.9169 14.6266 16.9167 14.4455V12.2498C16.9167 11.4763 16.6094 10.7344 16.0625 10.1874C15.5155 9.64046 14.7736 9.33317 14.0001 9.33317Z" fill="white"/>
</svg>
