<svg width="28" height="26" viewBox="0 0 28 26" fill="none" xmlns="http://www.w3.org/2000/svg">
<g clip-path="url(#clip0_23_1483)">
<path d="M10.4791 19.043C10.4791 18.2686 10.7383 17.6186 11.2568 17.093C11.8026 16.5398 12.4575 16.2633 13.2217 16.2633H19.4845L18.4203 13.1931C17.9836 12.0592 17.547 10.9943 17.1104 9.99861C16.701 8.97527 16.2235 8.04867 15.6777 7.2189C15.1864 6.38914 14.627 5.94661 13.9994 5.89129C13.3445 5.94661 12.7577 6.38914 12.2392 7.2189C11.7207 8.04867 11.2432 8.97527 10.8065 9.99861C10.3972 10.9943 9.97425 12.0592 9.53765 13.1931L5.64891 23.9801C5.37602 24.5608 5.02125 25.0449 4.58463 25.4321C4.17529 25.7917 3.54764 25.9714 2.70168 25.9714C1.9103 25.9714 1.25536 25.6949 0.736857 25.1417C0.245652 24.5885 0.0273389 23.9248 0.0819172 23.1503C0.109206 22.7907 0.191074 22.4588 0.32752 22.1545L4.83023 10.372C6.08553 7.27422 7.34084 4.77111 8.59613 2.86267C9.82419 0.981882 11.6252 0.0276586 13.9994 0C16.3463 0.0276586 18.1337 0.981882 19.3617 2.86267C20.617 4.7158 21.8723 7.2189 23.1276 10.372L27.6304 22.1545C27.7667 22.4588 27.8486 22.7907 27.876 23.1503C27.9306 23.9248 27.6986 24.5885 27.1801 25.1417C26.6888 25.6949 26.0476 25.9714 25.2562 25.9714C24.3556 25.9714 23.687 25.7917 23.2504 25.4321C22.8411 25.0449 22.5 24.5608 22.2271 23.9801L21.4493 21.8227H13.2217C12.4575 21.8227 11.8163 21.5461 11.2978 20.9929C10.752 20.4674 10.4791 19.8174 10.4791 19.043Z" fill="#0077FF"/>
</g>
<defs>
<clipPath id="clip0_23_1483">
<rect width="28" height="26" fill="white"/>
</clipPath>
</defs>
</svg>
