<svg width="60" height="60" viewBox="0 0 60 60" fill="none" xmlns="http://www.w3.org/2000/svg">
<rect width="60" height="60" rx="30" fill="#0077FF"/>
<rect width="24" height="24" transform="translate(18 18)" fill="#0077FF"/>
<path d="M31.584 25.0001C31.3085 24.3686 30.9055 23.8008 30.4003 23.3323C29.8951 22.8639 29.2985 22.5049 28.648 22.2778C27.9975 22.0508 27.3071 21.9606 26.6201 22.013C25.9331 22.0653 25.2643 22.2591 24.6557 22.5821C24.0471 22.9051 23.5118 23.3503 23.0834 23.8899C22.655 24.4295 22.3427 25.0518 22.1661 25.7178C21.9895 26.3838 21.9525 27.0791 22.0572 27.76C22.162 28.441 22.4064 29.093 22.775 29.6751L22 32.0001L24.325 31.2251C24.5397 31.3611 24.7647 31.4808 25 31.5841M33 38.0001C31.8906 37.9999 30.8128 37.6308 29.9362 36.9509C29.0596 36.2709 28.434 35.3187 28.158 34.2442C27.8819 33.1697 27.9711 32.0339 28.4114 31.0156C28.8517 29.9973 29.6182 29.1544 30.5901 28.6196C31.5621 28.0847 32.6843 27.8883 33.7802 28.0612C34.876 28.2342 35.8832 28.7666 36.6432 29.5748C37.4032 30.383 37.8728 31.421 37.9781 32.5254C38.0835 33.6298 37.8185 34.7378 37.225 35.6751L38 38.0001L35.675 37.2251C34.8747 37.7316 33.9471 38.0003 33 38.0001Z" stroke="white" stroke-width="2" stroke-linecap="round" stroke-linejoin="round"/>
</svg>
