<svg width="60" height="60" viewBox="0 0 60 60" fill="none" xmlns="http://www.w3.org/2000/svg">
<rect x="0.5" y="0.5" width="59" height="59" rx="29.5" stroke="#E9E9E9"/>
<path d="M31.584 25C31.3085 24.3685 30.9055 23.8007 30.4003 23.3322C29.8951 22.8638 29.2985 22.5048 28.648 22.2777C27.9975 22.0507 27.3071 21.9605 26.6201 22.0129C25.9331 22.0652 25.2643 22.259 24.6557 22.582C24.0471 22.905 23.5118 23.3502 23.0834 23.8898C22.655 24.4294 22.3427 25.0517 22.1661 25.7177C21.9895 26.3837 21.9525 27.079 22.0572 27.7599C22.162 28.4409 22.4064 29.0929 22.775 29.675L22 32L24.325 31.225C24.5397 31.361 24.7647 31.4807 25 31.584M33 38C31.8906 37.9998 30.8128 37.6307 29.9362 36.9508C29.0596 36.2708 28.434 35.3186 28.158 34.2441C27.8819 33.1696 27.9711 32.0338 28.4114 31.0155C28.8517 29.9972 29.6182 29.1543 30.5901 28.6195C31.5621 28.0846 32.6843 27.8882 33.7802 28.0611C34.876 28.2341 35.8832 28.7665 36.6432 29.5747C37.4032 30.3829 37.8728 31.4209 37.9781 32.5253C38.0835 33.6297 37.8185 34.7377 37.225 35.675L38 38L35.675 37.225C34.8747 37.7315 33.9471 38.0002 33 38Z" stroke="#090740" stroke-width="2" stroke-linecap="round" stroke-linejoin="round"/>
</svg>
