<svg width="60" height="60" viewBox="0 0 60 60" fill="none" xmlns="http://www.w3.org/2000/svg">
<rect x="0.5" y="0.5" width="59" height="59" rx="29.5" stroke="#E9E9E9"/>
<path d="M33 39V31C33 30.7348 32.8946 30.4804 32.7071 30.2929C32.5196 30.1054 32.2652 30 32 30H28C27.7348 30 27.4804 30.1054 27.2929 30.2929C27.1054 30.4804 27 30.7348 27 31V39" stroke="#090740" stroke-width="2" stroke-linecap="round" stroke-linejoin="round"/>
<path d="M21 28C20.9999 27.7091 21.0633 27.4216 21.1858 27.1577C21.3082 26.8938 21.4868 26.6598 21.709 26.472L28.709 20.472C29.07 20.1669 29.5274 19.9995 30 19.9995C30.4726 19.9995 30.93 20.1669 31.291 20.472L38.291 26.472C38.5132 26.6598 38.6918 26.8938 38.8142 27.1577C38.9367 27.4216 39.0001 27.7091 39 28V37C39 37.5304 38.7893 38.0391 38.4142 38.4142C38.0391 38.7893 37.5304 39 37 39H23C22.4696 39 21.9609 38.7893 21.5858 38.4142C21.2107 38.0391 21 37.5304 21 37V28Z" stroke="#090740" stroke-width="2" stroke-linecap="round" stroke-linejoin="round"/>
</svg>
