<svg width="60" height="60" viewBox="0 0 60 60" fill="none" xmlns="http://www.w3.org/2000/svg">
<rect x="0.5" y="0.5" width="59" height="59" rx="29.5" stroke="#E9E9E9"/>
<path d="M22 36C22 34.9391 22.4214 33.9217 23.1716 33.1716C23.9217 32.4214 24.9391 32 26 32H34C35.0609 32 36.0783 32.4214 36.8284 33.1716C37.5786 33.9217 38 34.9391 38 36C38 36.5304 37.7893 37.0391 37.4142 37.4142C37.0391 37.7893 36.5304 38 36 38H24C23.4696 38 22.9609 37.7893 22.5858 37.4142C22.2107 37.0391 22 36.5304 22 36Z" stroke="#090740" stroke-width="2" stroke-linejoin="round"/>
<path d="M30 28C31.6569 28 33 26.6569 33 25C33 23.3431 31.6569 22 30 22C28.3431 22 27 23.3431 27 25C27 26.6569 28.3431 28 30 28Z" stroke="#090740" stroke-width="2"/>
</svg>
