<svg width="60" height="60" viewBox="0 0 60 60" fill="none" xmlns="http://www.w3.org/2000/svg">
<rect width="60" height="60" rx="30" fill="#0077FF"/>
<rect width="24" height="24" transform="translate(18 18)" fill="#0077FF"/>
<path d="M27.5 34C25.6833 34 24.146 33.3707 22.888 32.112C21.63 30.8533 21.0007 29.316 21 27.5C20.9993 25.684 21.6287 24.1467 22.888 22.888C24.1473 21.6293 25.6847 21 27.5 21C29.3153 21 30.853 21.6293 32.113 22.888C33.373 24.1467 34.002 25.684 34 27.5C34 28.2333 33.8833 28.925 33.65 29.575C33.4167 30.225 33.1 30.8 32.7 31.3L38.3 36.9C38.4833 37.0833 38.575 37.3167 38.575 37.6C38.575 37.8833 38.4833 38.1167 38.3 38.3C38.1167 38.4833 37.8833 38.575 37.6 38.575C37.3167 38.575 37.0833 38.4833 36.9 38.3L31.3 32.7C30.8 33.1 30.225 33.4167 29.575 33.65C28.925 33.8833 28.2333 34 27.5 34ZM27.5 32C28.75 32 29.8127 31.5627 30.688 30.688C31.5633 29.8133 32.0007 28.7507 32 27.5C31.9993 26.2493 31.562 25.187 30.688 24.313C29.814 23.439 28.7513 23.0013 27.5 23C26.2487 22.9987 25.1863 23.4363 24.313 24.313C23.4397 25.1897 23.002 26.252 23 27.5C22.998 28.748 23.4357 29.8107 24.313 30.688C25.1903 31.5653 26.2527 32.0027 27.5 32Z" fill="white"/>
</svg>
